<svg width="1969" height="1002" xmlns="http://www.w3.org/2000/svg" xmlns:xlink="http://www.w3.org/1999/xlink" xml:space="preserve" overflow="hidden"><g transform="translate(-1102 -528)"><path d="M2933.19 593.575C2919.63 742.76 2881.01 900.07 2820.44 1051.85 2745.54 1239.55 2643.21 1404.87 2524.51 1529.95L2517.92 1524.21C2636.05 1399.74 2737.92 1235.14 2812.5 1048.22 2879.91 879.305 2920 703.518 2928.5 539.949L2936.92 541.357C2936.03 558.632 2934.78 576.04 2933.19 593.575Z" fill="#FFFFFF" fill-rule="evenodd"/><path d="M3067.19 582.629C3053.67 731.965 3015.14 889.434 2954.72 1041.37 2880 1229.25 2777.91 1394.75 2659.49 1519.95L2652.92 1514.21C2770.77 1389.6 2872.39 1224.84 2946.8 1037.73 3014.05 868.645 3054.04 692.684 3062.52 528.949L3070.92 530.359C3070.03 547.651 3068.79 565.073 3067.19 582.629Z" fill="#FFFFFF" fill-rule="evenodd"/><path d="M2139.92 923.663 2131.74 924.56C2095.27 781.28 2024.57 682.019 1927.29 637.503 1803.62 580.913 1650.7 618.915 1496.7 744.505 1341.91 870.733 1204.88 1070.12 1110.86 1305.95L1102.92 1302.32C1197.35 1065.46 1335.09 865.11 1490.74 738.176 1647.18 610.604 1803.22 572.323 1930.12 630.395 2030.2 676.186 2102.74 777.598 2139.92 923.663Z" fill="#FFFFFF" fill-rule="evenodd"/><path d="M2912.41 1207.95 2803.35 1207.95C2798.63 1207.96 2794.16 1205.8 2791.23 1202.09 2788.33 1198.47 2787.24 1193.73 2788.27 1189.2 2798.66 1143.22 2798 1095.42 2786.37 1049.74 2784.86 1043.59 2787.24 1037.14 2792.37 1033.44 2848.44 992.979 2892.6 994.156 2923.63 1036.94 2925.03 1038.89 2925.96 1041.14 2926.34 1043.51 2934.63 1093.51 2935.09 1144.49 2927.7 1194.63 2926.64 1202.28 2920.11 1207.97 2912.41 1207.95Z" fill="#84E291" fill-rule="evenodd"/><path d="M2878.12 1098.95 2840.7 1098.95C2836.4 1098.94 2832.91 1095.35 2832.92 1090.93 2832.93 1086.53 2836.41 1082.95 2840.7 1082.95L2878.12 1082.95C2882.43 1082.95 2885.92 1086.53 2885.92 1090.95 2885.92 1095.37 2882.43 1098.95 2878.12 1098.95Z" fill="#FFFFFF" fill-rule="evenodd"/><path d="M2878.12 1125.95 2840.7 1125.95C2836.4 1125.94 2832.91 1122.58 2832.92 1118.43 2832.93 1114.3 2836.41 1110.96 2840.7 1110.95L2878.12 1110.95C2882.43 1110.95 2885.92 1114.31 2885.92 1118.45 2885.92 1122.59 2882.43 1125.95 2878.12 1125.95Z" fill="#FFFFFF" fill-rule="evenodd"/><path d="M2878.12 1153.95 2840.7 1153.95C2836.4 1153.94 2832.91 1150.35 2832.92 1145.93 2832.93 1141.53 2836.41 1137.95 2840.7 1137.95L2878.12 1137.95C2882.43 1137.95 2885.92 1141.53 2885.92 1145.95 2885.92 1150.37 2882.43 1153.95 2878.12 1153.95Z" fill="#FFFFFF" fill-rule="evenodd"/><path d="M2133 1080.5C2133 1116.67 2103.67 1146 2067.5 1146 2031.33 1146 2002 1116.67 2002 1080.5 2002 1044.33 2031.33 1015 2067.5 1015 2103.67 1015 2133 1044.33 2133 1080.5Z" fill="#38B6FF" fill-rule="evenodd"/><path d="M2100.43 1053.41C2098.4 1051.46 2095.21 1051.46 2093.17 1053.41 2079.38 1064.44 2066.99 1077.12 2056.29 1091.18 2053.66 1086.08 2051.03 1080.99 2048.41 1075.89 2045.37 1070 2036.51 1075.2 2039.54 1081.08 2043.39 1088.54 2047.23 1096 2051.08 1103.46 2052.57 1105.91 2055.77 1106.68 2058.21 1105.18 2058.92 1104.75 2059.51 1104.16 2059.94 1103.46 2071.34 1087.34 2084.98 1072.94 2100.43 1060.68 2102.42 1058.67 2102.42 1055.42 2100.43 1053.41Z" fill="#FFFFFF" fill-rule="evenodd"/><path d="M1775.19 1266.04 1676.92 1111.13 1790.71 1049.95 1820.58 1168.14 2031 1282.29C2054.65 1273.75 2080.71 1286.06 2089.22 1309.8 2097.73 1333.53 2085.46 1359.7 2061.82 1368.24 2039.62 1376.26 2015.01 1365.92 2005.11 1344.43Z" fill="#A0616A" fill-rule="evenodd"/><path d="M1604.42 925.431C1573.43 970.883 1683.55 1136.1 1683.55 1136.1 1688.91 1124.55 1740.19 1254.28 1748.78 1246.62 1773.19 1224.84 1811.4 1164.17 1832.64 1161.47 1844.79 1159.92 1804.47 1073.85 1804.47 1073.85 1804.47 1073.85 1786.04 1023.02 1761.04 958.101 1747.36 920.528 1715.37 892.577 1676.28 884.041 1676.28 884.045 1635.4 879.976 1604.42 925.431Z" fill="#3F3D56" fill-rule="evenodd"/><path d="M1755 692.5C1755 744.691 1712.69 787 1660.5 787 1608.31 787 1566 744.691 1566 692.5 1566 640.309 1608.31 598 1660.5 598 1712.69 598 1755 640.309 1755 692.5Z" fill="#A0616A" fill-rule="evenodd"/><path d="M1596.35 803 1691.54 811.315 1708.19 853.225C1728.58 866.459 1740.78 890.779 1747.78 915.523 1760.74 961.336 1768.54 1008.7 1771.01 1056.57L1778.41 1199.89 1870 1505.07C1865.04 1509.65 1859.22 1513.73 1852.68 1517.34L1837.46 1524 1505.08 1524 1495.62 1522.35C1493.41 1521.95 1492.25 1521.73 1492.25 1521.73 1492.25 1521.73 1483.09 1518.4 1492.25 1508.4 1501.41 1498.4 1510.32 1507.26 1501.16 1497.26 1492 1487.26 1498.32 1498.4 1501.37 1488.4 1504.42 1478.4 1501.37 1485.07 1498.32 1481.73 1495.27 1478.4 1521.95 1448.4 1521.95 1448.4L1497.53 1273.23 1467 919.893C1503.64 869.894 1577.32 840.418 1577.32 840.418Z" fill="#3F3D56" fill-rule="evenodd"/><path d="M1738.53 642.245C1745.86 647.697 1751.3 655.304 1754.07 663.999 1755.13 649.794 1755.2 635.53 1754.27 621.314 1753.16 611.326 1746.1 609.079 1737.93 606.476 1730.55 604.123 1722.21 601.465 1719.96 591.768 1690.29 563.005 1638.64 564.455 1603.29 574.488 1583.84 580.008 1572.65 587.102 1571.65 591.258L1571.44 592.113 1570.65 592.507C1555.65 599.977 1552.74 623.568 1552.93 642.043 1553.29 676.85 1565.35 716.381 1572.15 719.593 1572.51 719.763 1572.6 719.695 1572.75 719.565L1572.75 719.565C1582.98 711.421 1595.46 720.184 1600.95 724.949 1607.6 680.434 1643.88 646.188 1688.85 641.971 1695.98 641.283 1703.07 640.1 1710.04 638.43 1713.57 637.517 1717.21 637.045 1720.86 637.014 1727.15 636.919 1733.31 638.745 1738.53 642.245Z" fill="#2F2E41" fill-rule="evenodd"/><path d="M2325.72 1495.2 2507.13 1310.18 2554.92 1162.19 2478.01 1130.95C2439.91 1169.55 2400.69 1287.72 2400.69 1287.72L2276.88 1454.62C2275.89 1454.99 2274.9 1455.39 2273.93 1455.84 2255.63 1464.52 2247.8 1486.46 2256.44 1504.85 2265.08 1523.23 2286.92 1531.1 2305.23 1522.42 2316.09 1517.27 2323.74 1507.1 2325.72 1495.2Z" fill="#FFB8B8" fill-rule="evenodd"/><path d="M2456.92 1147.77 2554.7 1175.95 2555.07 1175.88C2591.01 1168.93 2619.44 1109.43 2636.96 1060.74 2648.92 1027.41 2632.93 990.551 2600.37 976.399L2600.37 976.399C2576.68 966.292 2549.29 970.454 2529.71 987.13L2480.96 1028.95Z" fill="#38B6FF" fill-rule="evenodd"/><path d="M2525.07 840 2605.77 840 2655.81 914.026 2696.98 952.844C2738.06 991.607 2755.02 1049.51 2741.35 1104.31L2723.54 1175.49 2711.29 1282.67 2711.23 1283.2 2689.94 1304.49 2692.91 1328.25 2699.18 1381.56 2671.33 1390.6C2677.12 1403.04 2711.41 1479.67 2700.36 1525.97L2699.48 1528 2341.05 1528 2335.8 1526.61C2323.75 1523 2314.54 1519.31 2310.22 1516.39 2308.02 1514.9 2307 1513.56 2307 1512.17 2307 1502.93 2332.36 1469.12 2336.2 1464.05L2345.49 1420.74 2366.51 1411.73 2360.48 1381.57 2388.1 1350.87 2388.12 1319.99 2412.67 1149.36 2406.4 1012.31C2403.75 955.57 2442.04 905.044 2497.4 892.253Z" fill="#38B6FF" fill-rule="evenodd"/><path d="M2662 710C2662 769.094 2614.09 817 2555 817 2495.91 817 2448 769.094 2448 710 2448 650.906 2495.91 603 2555 603 2614.09 603 2662 650.906 2662 710Z" fill="#FFB8B8" fill-rule="evenodd"/><path d="M2544.25 817.821C2560.81 817.653 2577.33 816.072 2593.62 813.096 2609.74 809.384 2645.33 781.905 2655.02 765.67L2655.02 765.67C2662.23 753.607 2666.55 734.953 2668.91 721.426 2675.36 685.225 2666.13 647.995 2643.52 618.976 2639.21 612.962 2633.35 608.226 2626.57 605.267 2625.97 605.051 2625.35 604.858 2624.73 604.7 2614.9 602.384 2605.99 597.188 2599.13 589.778 2597.8 588.277 2596.36 586.875 2594.83 585.579 2587.14 579.43 2578.11 575.186 2568.46 573.193 2552.88 569.457 2530.59 574.141 2502.21 587.129 2487.95 593.651 2472.13 591.83 2459.93 589.517 2458.54 589.287 2457.13 589.809 2456.23 590.892 2451.2 595.865 2444.46 598.748 2437.38 598.964 2433.05 599.263 2428.66 605.377 2423.36 613.337 2422.16 615.144 2420.76 617.251 2419.74 618.54L2419.54 616.12 2417.16 618.883C2404.9 633.097 2406.5 654.542 2420.74 666.784 2424.56 670.076 2429.07 672.471 2433.94 673.804 2438.33 674.853 2442.81 675.447 2447.32 675.585 2450.06 675.757 2452.89 675.939 2455.61 676.337 2473.36 679.496 2488.15 691.737 2494.56 708.573 2497.23 715.47 2505 718.89 2511.91 716.216 2512.99 715.794 2514.01 715.237 2514.95 714.553 2520.56 709.955 2528.06 708.391 2535.04 710.36 2538.03 711.924 2540.39 714.464 2541.73 717.557 2543.35 721 2545.95 723.884 2549.22 725.839 2560.35 731.214 2561.75 756.257 2558.35 777.248 2555.07 797.487 2547.92 812.247 2540.98 813.147 2535.63 813.838 2535.03 814.233 2534.67 815.192L2534.34 816.048 2534.97 816.825C2537.95 817.821 2541.12 818.161 2544.25 817.821Z" fill="#2F2E41" fill-rule="evenodd"/><path d="M2455.92 1159.44 2404.55 1093.95C2352.23 1108.37 2259.4 1191.17 2259.4 1191.17L2068.74 1273.95C2048.74 1270.59 2029.79 1284.09 2026.43 1304.11 2023.07 1324.12 2036.57 1343.08 2056.57 1346.44 2069.55 1348.62 2082.71 1343.69 2091.06 1333.5L2340.81 1263.78Z" fill="#FFB8B8" fill-rule="evenodd"/><path d="M2443.28 1174.95 2524.28 1084.66 2528.77 1020.69C2530.48 995.065 2517.49 970.691 2495.27 957.811L2495.27 957.811C2464.51 940.258 2425.41 949.526 2405.8 979.017 2377.18 1022.15 2346.39 1080.46 2362.23 1113.34L2362.4 1113.67Z" fill="#38B6FF" fill-rule="evenodd"/><path d="M1706.95 1503.02 1496.39 1395.34C1481.41 1387.68 1476.45 1367.36 1485.33 1350.05L1622.62 1082.39C1631.5 1065.08 1650.91 1057.22 1665.89 1064.88L1876.45 1172.56C1891.43 1180.22 1896.39 1200.53 1887.51 1217.85L1750.22 1485.51C1741.34 1502.82 1721.93 1510.67 1706.95 1503.02Z" fill="#E6E6E6" fill-rule="evenodd"/><path d="M1671.47 1453.37 1528.41 1380.14C1514.38 1372.96 1509.73 1353.92 1518.05 1337.69L1632.11 1115.11C1640.43 1098.88 1658.61 1091.52 1672.64 1098.7L1845.43 1187.14C1859.46 1194.32 1864.11 1213.36 1855.79 1229.59L1793.83 1350.51C1756.78 1422.8 1733.96 1485.35 1671.47 1453.37Z" fill="#FFFFFF" fill-rule="evenodd"/><path d="M1731.48 1342.53 1605.23 1278.2C1601.68 1275.68 1600.86 1270.78 1603.39 1267.25 1605.41 1264.42 1609.06 1263.25 1612.36 1264.37L1738.61 1328.69C1742.16 1331.21 1742.99 1336.12 1740.46 1339.65 1738.43 1342.48 1734.79 1343.65 1731.48 1342.53Z" fill="#38B6FF" fill-rule="evenodd"/><path d="M1619.38 1320.52 1590.27 1305.52C1586.68 1302.95 1585.84 1297.93 1588.4 1294.32 1590.45 1291.43 1594.13 1290.23 1597.46 1291.38L1626.57 1306.38C1630.16 1308.95 1631 1313.97 1628.44 1317.58 1626.39 1320.47 1622.71 1321.66 1619.38 1320.52Z" fill="#38B6FF" fill-rule="evenodd"/><path d="M1656.44 1374.53 1576.25 1333.37C1572.68 1330.82 1571.85 1325.86 1574.39 1322.28 1576.43 1319.43 1580.09 1318.24 1583.41 1319.37L1663.59 1360.53C1667.16 1363.07 1667.99 1368.04 1665.45 1371.61 1663.42 1374.47 1659.75 1375.65 1656.44 1374.53Z" fill="#38B6FF" fill-rule="evenodd"/><path d="M1781.48 1244.53 1655.23 1180.2C1651.68 1177.68 1650.86 1172.78 1653.39 1169.25 1655.41 1166.42 1659.06 1165.25 1662.36 1166.37L1788.61 1230.69C1792.16 1233.21 1792.99 1238.12 1790.45 1241.65 1788.43 1244.48 1784.79 1245.65 1781.48 1244.53Z" fill="#38B6FF" fill-rule="evenodd"/><path d="M1669.62 1222.52 1641.19 1207.52C1637.69 1204.94 1636.87 1199.93 1639.37 1196.32 1641.37 1193.43 1644.96 1192.24 1648.22 1193.37L1676.65 1208.38C1680.16 1210.95 1680.97 1215.97 1678.48 1219.58 1676.48 1222.47 1672.88 1223.66 1669.62 1222.52Z" fill="#38B6FF" fill-rule="evenodd"/><path d="M1706.44 1276.53 1626.25 1235.37C1622.68 1232.82 1621.85 1227.86 1624.39 1224.28 1626.43 1221.43 1630.09 1220.24 1633.41 1221.37L1713.59 1262.53C1717.16 1265.07 1717.99 1270.04 1715.45 1273.61 1713.42 1276.47 1709.75 1277.65 1706.44 1276.53Z" fill="#38B6FF" fill-rule="evenodd"/><path d="M1532.52 1269.74 1484.92 1092.97 1612.13 1068.95 1605.29 1190.28 1772.42 1361.95C1797.6 1360.92 1818.85 1380.45 1819.88 1405.57 1820.91 1430.69 1801.33 1451.88 1776.15 1452.91 1752.51 1453.87 1732.05 1436.66 1729.02 1413.26Z" fill="#A0616A" fill-rule="evenodd"/><path d="M1462.31 904.74C1416.68 938.857 1475.25 1129.7 1475.25 1129.7 1484.31 1120.28 1494.85 1259.57 1505.93 1254.83 1537.43 1241.35 1595.16 1194.87 1617.41 1198.66 1630.14 1200.82 1616.8 1106.52 1616.8 1106.52 1616.8 1106.52 1614.35 1052.45 1609.74 982.933 1607.88 942.941 1584.51 906.644 1547.83 886.767 1547.83 886.767 1507.93 870.619 1462.31 904.74Z" fill="#3F3D56" fill-rule="evenodd"/><path d="M1424.92 557.968C1403.54 602.996 1383.21 649.646 1364.49 696.615 1256.73 966.923 1202.13 1242.98 1206.59 1494.95L1198.17 1494.05C1193.71 1241.14 1248.47 964.137 1356.55 692.987 1375.33 645.884 1395.72 599.104 1417.16 553.949Z" fill="#FFFFFF" fill-rule="evenodd"/><path d="M2871.94 986.363C2888.05 997.084 2893.56 1017.12 2884.25 1031.12 2874.94 1045.12 2854.32 1047.78 2838.21 1037.06 2822.09 1026.34 2816.58 1006.3 2825.9 992.299 2835.21 978.3 2855.82 975.643 2871.94 986.363Z" fill="#CCCCCC" fill-rule="evenodd"/><path d="M1399.41 1314.95 1290.35 1314.95C1285.63 1314.96 1281.16 1312.8 1278.23 1309.09 1275.33 1305.47 1274.24 1300.73 1275.27 1296.2 1285.66 1250.22 1285 1202.43 1273.37 1156.74 1271.86 1150.59 1274.24 1144.14 1279.37 1140.44 1335.44 1099.98 1379.6 1101.16 1410.63 1143.94 1412.03 1145.89 1412.96 1148.14 1413.34 1150.51 1421.63 1200.51 1422.09 1251.49 1414.7 1301.63 1413.64 1309.28 1407.11 1314.97 1399.41 1314.95Z" fill="#84E291" fill-rule="evenodd"/><path d="M1365.14 1205.95 1327.72 1205.95C1323.41 1205.95 1319.92 1202.37 1319.92 1197.95 1319.92 1193.53 1323.41 1189.95 1327.72 1189.95L1365.14 1189.95C1369.45 1189.95 1372.93 1193.55 1372.92 1197.97 1372.91 1202.37 1369.43 1205.94 1365.14 1205.95Z" fill="#FFFFFF" fill-rule="evenodd"/><path d="M1365.14 1232.95 1327.72 1232.95C1323.41 1232.95 1319.92 1229.59 1319.92 1225.45 1319.92 1221.31 1323.41 1217.95 1327.72 1217.95L1365.14 1217.95C1369.45 1217.96 1372.93 1221.32 1372.92 1225.47 1372.91 1229.6 1369.43 1232.94 1365.14 1232.95Z" fill="#FFFFFF" fill-rule="evenodd"/><path d="M1365.14 1260.95 1327.72 1260.95C1323.41 1260.95 1319.92 1257.37 1319.92 1252.95 1319.92 1248.53 1323.41 1244.95 1327.72 1244.95L1365.14 1244.95C1369.45 1244.95 1372.93 1248.55 1372.92 1252.97 1372.91 1257.37 1369.43 1260.94 1365.14 1260.95Z" fill="#FFFFFF" fill-rule="evenodd"/><path d="M1362.34 1075.89C1378.46 1086.61 1383.97 1106.65 1374.66 1120.65 1365.34 1134.65 1344.73 1137.31 1328.62 1126.59 1312.5 1115.87 1306.99 1095.83 1316.3 1081.83 1325.62 1067.83 1346.23 1065.17 1362.34 1075.89Z" fill="#CCCCCC" fill-rule="evenodd"/></g></svg>